# xmcd
#
# Track frame offsets:
#	150
#	65337
#	81086
#	102586
#	119011
#	140954
#	172096
#	188802
#	209100
#	234915
#	258294
#
# Disc length: 3875 seconds
#
# Revision: 1
# Processed by: cddbd v1.5.2PL0 Copyright (c) Steve Scherf et al.
# Submitted via: audiograbber 1.83.01
#
DISCID=aa0f210b
DTITLE=Grateful Dead - 73-11-30 Boston Music Hall, Boston MA
DYEAR=1900
DGENRE=
TTITLE0=Morning Dew
TTITLE1=Mexicali Blues
TTITLE2=Dire Wolf
TTITLE3=BIODTL
TTITLE4=Brown Eyed Women
TTITLE5=Black Throated Wind
TTITLE6=Don't Ease Me In
TTITLE7=El Paso
TTITLE8=They Love Each Other
TTITLE9=Big River
TTITLE10=Loser
EXTD=
EXTT0=
EXTT1=
EXTT2=
EXTT3=
EXTT4=
EXTT5=
EXTT6=
EXTT7=
EXTT8=
EXTT9=
EXTT10=
PLAYORDER=
